<svg width="90" height="28" viewBox="0 0 90 28" fill="none" xmlns="http://www.w3.org/2000/svg">
<g clip-path="url(#clip0_3028_15294)">
<path d="M5.49318 0.355608H90V3.24139L74.4024 24.2204H86.5303V27.1824H66.9815V25.247L83.0403 4.24845H8.82071L5.9527 24.2568C9.14314 24.2627 12.3344 24.2687 15.5249 24.2746C15.7491 21.6892 15.9734 19.1039 16.1976 16.5185H11.2969V13.472H21.8245C22.2806 19.0345 22.2629 16.235 21.3887 23.667C21.1373 25.6997 21.0772 26.3073 20.5306 26.8566C19.5277 27.8645 17.8631 27.647 17.1819 27.6385C12.0399 27.575 6.89714 27.5124 1.7552 27.449C0.657588 27.6427 -0.164141 26.5392 0.0279626 25.6523C0.266611 23.7567 2.4483 5.62364 3.02122 1.81289C3.33349 0.908222 4.77469 0.204972 5.49318 0.355608Z" fill="#FFBE17"/>
<path d="M48.9254 7.604H53.1703C53.1703 7.604 59.4581 20.5799 59.4979 20.4597C59.5377 20.3395 61.1396 7.604 61.1396 7.604H65.6249L62.7814 27.2679H58.7769L52.2487 14.6932L50.3666 27.2679H45.9609L48.9246 7.604H48.9254Z" fill="#FFBE17"/>
<path d="M27.9321 7.604H33.0173L29.9217 27.2679H25.791C25.2706 27.2679 24.8737 26.8025 24.9549 26.2888L27.9312 7.60485L27.9321 7.604Z" fill="#FFBE17"/>
<path d="M39.9161 7.604H45.0013L42.0182 26.5528C41.9531 26.9641 41.5985 27.2671 41.1821 27.2671H36.7832L39.9153 7.60315L39.9161 7.604Z" fill="#FFBE17"/>
<path d="M29.9224 27.267H36.7839L37.1055 25.2469H30.2397L29.9224 27.267Z" fill="#FFBE17"/>
<path d="M21.7617 20.8185L22.922 13.4678H21.7998" fill="#FFBE17"/>
</g>
<defs>
<clipPath id="clip0_3028_15294">
<rect width="90" height="27.3295" fill="white" transform="translate(0 0.335327)"/>
</clipPath>
</defs>
</svg>
