<svg width="80" height="25" viewBox="0 0 80 25" fill="none" xmlns="http://www.w3.org/2000/svg">
<mask id="mask0_23_66" style="mask-type:luminance" maskUnits="userSpaceOnUse" x="0" y="0" width="80" height="25">
<path d="M80 0.335327H0V24.6282H80V0.335327Z" fill="white"/>
</mask>
<g mask="url(#mask0_23_66)">
<path d="M4.88283 0.353341H80V2.91848L66.1355 21.5665H76.9158V24.1994H59.5391V22.479L73.8136 3.81364H7.84063L5.29129 21.5988C8.12724 21.6041 10.9639 21.6094 13.7999 21.6147C13.9992 19.3165 14.1986 17.0185 14.3979 14.7204H10.0417V12.0124H19.3996C19.805 16.9568 19.7892 14.4684 19.0122 21.0746C18.7887 22.8814 18.7353 23.4215 18.2494 23.9098C17.358 24.8057 15.8783 24.6124 15.2728 24.6048C10.7021 24.5484 6.13079 24.4927 1.56018 24.4364C0.584523 24.6085 -0.145903 23.6276 0.0248557 22.8393C0.236988 21.1543 2.17627 5.03604 2.68553 1.6487C2.9631 0.844553 4.24417 0.219442 4.88283 0.353341Z" fill="white"/>
<path d="M43.4892 6.79637H47.2625C47.2625 6.79637 52.8516 18.3305 52.887 18.2237C52.9224 18.1168 54.3463 6.79637 54.3463 6.79637H58.3332L55.8057 24.2754H52.2461L46.4433 13.0979L44.7703 24.2754H40.8541L43.4892 6.79637Z" fill="white"/>
<path d="M24.8285 6.79637H29.3487L26.5971 24.2754H22.9253C22.4627 24.2754 22.1099 23.8617 22.1821 23.4051L24.8277 6.79713L24.8285 6.79637Z" fill="white"/>
<path d="M35.481 6.79636H40.0011L37.3495 23.6397C37.2916 24.0053 36.9764 24.2747 36.6063 24.2747H32.6962L35.4803 6.79561L35.481 6.79636Z" fill="white"/>
<path d="M26.5977 24.2746H32.6968L32.9827 22.4789H26.8797L26.5977 24.2746Z" fill="white"/>
<path d="M19.3437 18.5426L20.3751 12.0086H19.3776" fill="white"/>
</g>
</svg>
