<svg width="40" height="32" viewBox="0 0 40 32" fill="none" xmlns="http://www.w3.org/2000/svg">
<g clip-path="url(#clip0_54_1389)">
<path d="M18.3195 23.9892C18.3195 23.952 18.3195 23.7471 18.3195 23.7005C18.3195 21.3634 18.3195 19.0262 18.3195 16.6983C18.3195 16.6703 18.3195 16.6424 18.3195 16.6052C18.2823 16.6052 18.2543 16.6052 18.2171 16.6052C17.4722 16.6052 16.7272 16.6052 15.9823 16.6052C15.8799 16.6145 15.8799 16.6145 15.8799 16.5121C15.8799 15.6368 15.8799 14.7615 15.8799 13.8862C15.8799 13.8024 15.9078 13.7838 15.9823 13.7838C16.7272 13.7838 17.4722 13.7838 18.2171 13.7838C18.245 13.7838 18.2823 13.7838 18.3195 13.7838C18.3195 13.7558 18.3195 13.7279 18.3195 13.7C18.3195 12.9737 18.3195 12.2474 18.3288 11.5211C18.3381 10.9345 18.4499 10.3665 18.7013 9.8357C19.0458 9.12802 19.5952 8.60658 20.3308 8.30861C20.8243 8.09445 21.3457 8.00133 21.8765 8.01064C22.4817 8.01995 23.0963 8.04789 23.7016 8.06651C23.8133 8.06651 23.925 8.09445 24.0368 8.09445C24.1019 8.09445 24.1206 8.12238 24.1206 8.18756C24.1206 8.55071 24.1206 8.91386 24.1206 9.27701C24.1206 9.70534 24.1206 10.1337 24.1206 10.5527C24.1206 10.6272 24.1019 10.6458 24.0275 10.6458C23.5619 10.6458 23.1056 10.6365 22.64 10.6458C22.4352 10.6551 22.221 10.683 22.0162 10.7296C21.6158 10.8134 21.383 11.0741 21.3085 11.4745C21.2712 11.6235 21.2526 11.7911 21.2526 11.9494C21.2433 12.5453 21.2526 13.132 21.2526 13.7279C21.2526 13.7465 21.2526 13.7652 21.2526 13.7931C21.2899 13.7931 21.3178 13.7931 21.3551 13.7931C22.2117 13.7931 23.0591 13.7931 23.9157 13.7931C24.0275 13.7931 24.0275 13.7931 24.0181 13.8955C23.9623 14.3611 23.8971 14.8267 23.8319 15.2922C23.7854 15.6833 23.7388 16.0744 23.6922 16.4655C23.6736 16.6145 23.6736 16.6145 23.5246 16.6145C22.7983 16.6145 22.072 16.6145 21.3551 16.6145C21.3271 16.6145 21.2899 16.6145 21.2526 16.6145C21.2526 16.6517 21.2526 16.689 21.2526 16.7262C21.2526 19.0355 21.2526 21.3447 21.2526 23.654C21.2526 23.7099 21.2526 23.9333 21.2526 23.9892C20.2749 23.9892 19.2972 23.9892 18.3195 23.9892Z" fill="#FFBE17" fill-opacity="0.9"/>
</g>
<defs>
<clipPath id="clip0_54_1389">
<rect width="8.25" height="16" fill="white" transform="translate(15.8799 8)"/>
</clipPath>
</defs>
</svg>
