<svg width="40" height="32" viewBox="0 0 40 32" fill="none" xmlns="http://www.w3.org/2000/svg">
<g clip-path="url(#clip0_54_1401)">
<path d="M19.5959 20.059C19.4107 20.0085 19.2338 19.9327 19.057 19.8569L17.5749 21.339C16.7749 22.139 15.4696 22.139 14.6612 21.339C13.8612 20.539 13.8612 19.2337 14.6612 18.4253L17.5749 15.5116C17.9454 15.1411 18.4338 14.9474 18.9223 14.9221C19.1496 14.9137 19.377 14.939 19.6044 14.9979C19.9244 15.0906 20.2359 15.259 20.4886 15.5116C20.6654 15.6885 20.7833 15.899 20.8844 16.1095C20.9433 16.059 21.0107 16.0169 21.0612 15.9664L22.4086 14.619C22.2738 14.4253 22.1223 14.2316 21.9454 14.0632C21.6002 13.7179 21.2212 13.4569 20.8086 13.2632C20.5728 13.1453 20.337 13.0611 20.0928 12.9937C19.158 12.7411 18.1475 12.8337 17.2549 13.2548C16.918 13.4148 16.598 13.6253 16.3117 13.8779C16.2444 13.9369 16.177 13.9958 16.118 14.0548L13.2044 16.9685C11.5959 18.5769 11.5959 21.1874 13.2044 22.7958C14.8128 24.4043 17.4233 24.4043 19.0317 22.7958L21.7938 20.0337C21.078 20.2358 20.3117 20.2527 19.5959 20.059Z" fill="#FFBE17" fill-opacity="0.9"/>
<path d="M26.7959 9.20424C25.1874 7.59582 22.5769 7.59582 20.9685 9.20424L18.3495 11.8232C19.0148 11.6632 19.7222 11.6548 20.3874 11.84C20.6064 11.899 20.8085 11.9832 21.019 12.0758L22.4253 10.6695C23.2253 9.8695 24.5306 9.8695 25.339 10.6695C26.139 11.4695 26.139 12.7748 25.339 13.5832L22.4253 16.4969C22.0548 16.8758 21.5664 17.0611 21.078 17.0863C20.8506 17.0948 20.6232 17.0695 20.3959 17.0021C20.0759 16.9095 19.7643 16.7411 19.5117 16.4885C19.2927 16.2611 19.1411 15.9832 19.0485 15.7053C18.998 15.7474 18.939 15.7811 18.8885 15.8316L17.499 17.2211C17.659 17.4737 17.8359 17.7179 18.0548 17.9453C18.4001 18.2906 18.779 18.5516 19.1917 18.7453C19.419 18.8548 19.6548 18.939 19.899 19.0063C20.8338 19.259 21.8443 19.1663 22.7369 18.7453C23.0738 18.5853 23.3938 18.3748 23.6801 18.1221C23.7474 18.0632 23.8148 18.0127 23.8738 17.9453L26.7874 15.0316C28.4043 13.4232 28.4043 10.8127 26.7959 9.20424Z" fill="#FFBE17" fill-opacity="0.9"/>
</g>
<defs>
<clipPath id="clip0_54_1401">
<rect width="16" height="16" fill="white" transform="translate(12 8)"/>
</clipPath>
</defs>
</svg>
