<svg width="40" height="32" viewBox="0 0 40 32" fill="none" xmlns="http://www.w3.org/2000/svg">
<g clip-path="url(#clip0_54_1398)">
<path d="M29.6002 15.8242C29.6002 14.6569 28.6487 13.7055 27.4733 13.7055C26.9056 13.7055 26.3858 13.9374 26.002 14.3051C24.5548 13.3538 22.5958 12.7462 20.4289 12.6662L21.6123 8.93264L24.8266 9.68416C24.8266 9.70014 24.8186 9.71613 24.8186 9.73212C24.8186 10.6835 25.6022 11.459 26.5537 11.459C27.5132 11.459 28.2888 10.6835 28.2888 9.73212C28.2968 8.78074 27.5212 8.00525 26.5617 8.00525C25.8261 8.00525 25.2024 8.46095 24.9466 9.10853L21.4844 8.30106C21.3325 8.26108 21.1805 8.34903 21.1326 8.50093L19.8133 12.6662C17.5424 12.6902 15.4875 13.3058 13.9763 14.2812C13.6005 13.9294 13.0968 13.7135 12.537 13.7135C11.3617 13.7055 10.4102 14.6569 10.4102 15.8242C10.4102 16.5997 10.8339 17.2712 11.4656 17.639C11.4256 17.8628 11.3936 18.0947 11.3936 18.3265C11.3936 21.4525 15.2396 23.9948 19.9652 23.9948C24.6907 23.9948 28.5367 21.4525 28.5367 18.3265C28.5367 18.1107 28.5127 17.8948 28.4727 17.6789C29.1444 17.3192 29.6002 16.6236 29.6002 15.8242ZM15.8313 17.2712C15.8313 16.5757 16.399 16.016 17.0947 16.016C17.7903 16.016 18.358 16.5837 18.358 17.2712C18.358 17.9668 17.7903 18.5264 17.0947 18.5264C16.399 18.5264 15.8313 17.9668 15.8313 17.2712ZM23.0756 21.0048C22.4359 21.6364 21.4364 21.9482 20.0211 21.9482H20.0132H20.0052C18.5819 21.9482 17.5824 21.6364 16.9507 21.0048C16.8388 20.8929 16.8388 20.701 16.9507 20.5891C17.0707 20.4771 17.2546 20.4771 17.3745 20.5891C17.8943 21.1087 18.7578 21.3566 20.0132 21.3566H20.0211H20.0291C21.2845 21.3566 22.148 21.1087 22.6678 20.5891C22.7797 20.4691 22.9716 20.4771 23.0915 20.5891C23.1875 20.701 23.1875 20.8929 23.0756 21.0048ZM22.9236 18.5344C22.228 18.5344 21.6603 17.9668 21.6603 17.2792C21.6603 16.5837 22.228 16.024 22.9236 16.024C23.6193 16.024 24.187 16.5917 24.187 17.2792C24.187 17.9668 23.6193 18.5344 22.9236 18.5344Z" fill="#FFBE17" fill-opacity="0.9"/>
</g>
<defs>
<clipPath id="clip0_54_1398">
<rect width="19.19" height="16" fill="white" transform="translate(10.4102 8)"/>
</clipPath>
</defs>
</svg>
