<svg width="22" height="19" viewBox="0 0 22 19" fill="none" xmlns="http://www.w3.org/2000/svg">
<path d="M10.996 4C13.756 4 15.996 6.24 15.996 9C15.996 9.65 15.866 10.26 15.636 10.83L18.556 13.75C20.066 12.49 21.256 10.86 21.986 9C20.256 4.61 15.986 1.5 10.986 1.5C9.58597 1.5 8.24597 1.75 7.00597 2.2L9.16597 4.36C9.73597 4.13 10.346 4 10.996 4ZM0.995972 1.27L3.27597 3.55L3.73597 4.01C2.07597 5.3 0.775972 7.02 -0.00402832 9C1.72597 13.39 5.99597 16.5 10.996 16.5C12.546 16.5 14.026 16.2 15.376 15.66L15.796 16.08L18.726 19L19.996 17.73L2.26597 0L0.995972 1.27ZM6.52597 6.8L8.07597 8.35C8.02597 8.56 7.99597 8.78 7.99597 9C7.99597 10.66 9.33597 12 10.996 12C11.216 12 11.436 11.97 11.646 11.92L13.196 13.47C12.526 13.8 11.786 14 10.996 14C8.23597 14 5.99597 11.76 5.99597 9C5.99597 8.21 6.19597 7.47 6.52597 6.8ZM10.836 6.02L13.986 9.17L14.006 9.01C14.006 7.35 12.666 6.01 11.006 6.01L10.836 6.02Z" fill="white"/>
</svg>
